HIERARCHY
ROOT Hips
{
	OFFSET -14.64140 90.27770 -84.91600
	CHANNELS 6 Xposition Yposition Zposition Zrotation Xrotation Yrotation
	JOINT Spine
	{
		OFFSET 0.00000 13.20850 -1.60436
		CHANNELS 3 Zrotation Xrotation Yrotation
		JOINT Spine1
		{
			OFFSET 0.00000 8.61716 0.00000
			CHANNELS 3 Zrotation Xrotation Yrotation
			JOINT Spine2
			{
				OFFSET 0.00000 8.61717 0.00000
				CHANNELS 3 Zrotation Xrotation Yrotation
				JOINT Spine3
				{
					OFFSET 0.00000 8.61717 0.00000
					CHANNELS 3 Zrotation Xrotation Yrotation
					JOINT Neck
					{
						OFFSET 0.00000 11.07920 1.10792
						CHANNELS 3 Zrotation Xrotation Yrotation
						JOINT Neck1
						{
							OFFSET 0.00000 7.08032 0.00000
							CHANNELS 3 Zrotation Xrotation Yrotation
							JOINT Head
							{
								OFFSET 0.00000 7.08031 0.00000
								CHANNELS 3 Zrotation Xrotation Yrotation
								End site
								{
									OFFSET 0.00000 0.00000 0.00000
								}
							}
						}
					}
					JOINT RightShoulder
					{
						OFFSET -0.01000 7.91373 5.19711
						CHANNELS 3 Zrotation Xrotation Yrotation
						JOINT RightArm
						{
							OFFSET -18.41580 0.00000 0.00000
							CHANNELS 3 Zrotation Xrotation Yrotation
							JOINT RightForeArm
							{
								OFFSET -29.11090 0.00000 0.00000
								CHANNELS 3 Zrotation Xrotation Yrotation
								JOINT RightHand
								{
									OFFSET -24.65040 0.00000 0.00000
									CHANNELS 3 Zrotation Xrotation Yrotation
									JOINT RightHandThumb1
									{
										OFFSET -5.35114 -0.85590 3.97906
										CHANNELS 3 Zrotation Xrotation Yrotation
										JOINT RightHandThumb2
										{
											OFFSET -4.52789 0.00000 0.00000
											CHANNELS 3 Zrotation Xrotation Yrotation
											JOINT RightHandThumb3
											{
												OFFSET -2.46976 0.00000 0.00000
												CHANNELS 3 Zrotation Xrotation Yrotation
												End site
												{
													OFFSET 0.00000 0.00000 0.00000
												}
											}
										}
									}
									JOINT RightHandIndex1
									{
										OFFSET -14.26970 0.00000 2.88139
										CHANNELS 3 Zrotation Xrotation Yrotation
										JOINT RightHandIndex2
										{
											OFFSET -5.48836 0.00000 0.00000
											CHANNELS 3 Zrotation Xrotation Yrotation
											JOINT RightHandIndex3
											{
												OFFSET -3.01859 0.00000 0.00000
												CHANNELS 3 Zrotation Xrotation Yrotation
												End site
												{
													OFFSET 0.00000 0.00000 0.00000
												}
											}
										}
									}
									JOINT RightHandMiddle1
									{
										OFFSET -14.26970 0.00000 -0.09147
										CHANNELS 3 Zrotation Xrotation Yrotation
										JOINT RightHandMiddle2
										{
											OFFSET -6.17441 0.00000 0.00000
											CHANNELS 3 Zrotation Xrotation Yrotation
											JOINT RightHandMiddle3
											{
												OFFSET -3.56743 0.00000 0.00000
												CHANNELS 3 Zrotation Xrotation Yrotation
												End site
												{
													OFFSET 0.00000 0.00000 0.00000
												}
											}
										}
									}
									JOINT RightHandRing1
									{
										OFFSET -12.69180 0.00000 -3.06433
										CHANNELS 3 Zrotation Xrotation Yrotation
										JOINT RightHandRing2
										{
											OFFSET -5.62556 0.00000 0.00000
											CHANNELS 3 Zrotation Xrotation Yrotation
											JOINT RightHandRing3
											{
												OFFSET -3.56744 0.00000 0.00000
												CHANNELS 3 Zrotation Xrotation Yrotation
												End site
												{
													OFFSET 0.00000 0.00000 0.00000
												}
											}
										}
									}
									JOINT RightHandPinky1
									{
										OFFSET -11.11390 0.00000 -6.03719
										CHANNELS 3 Zrotation Xrotation Yrotation
										JOINT RightHandPinky2
										{
											OFFSET -4.52789 0.00000 0.00000
											CHANNELS 3 Zrotation Xrotation Yrotation
											JOINT RightHandPinky3
											{
												OFFSET -2.46976 0.00000 0.00000
												CHANNELS 3 Zrotation Xrotation Yrotation
												End site
												{
													OFFSET 0.00000 0.00000 0.00000
												}
											}
										}
									}
								}
							}
						}
					}
					JOINT LeftShoulder
					{
						OFFSET 0.01000 7.91373 5.19711
						CHANNELS 3 Zrotation Xrotation Yrotation
						JOINT LeftArm
						{
							OFFSET 18.41580 0.00000 0.00000
							CHANNELS 3 Zrotation Xrotation Yrotation
							JOINT LeftForeArm
							{
								OFFSET 29.11090 0.00000 0.00000
								CHANNELS 3 Zrotation Xrotation Yrotation
								JOINT LeftHand
								{
									OFFSET 24.65040 0.00000 0.00000
									CHANNELS 3 Zrotation Xrotation Yrotation
									JOINT LeftHandThumb1
									{
										OFFSET 5.35114 -0.85590 3.97906
										CHANNELS 3 Zrotation Xrotation Yrotation
										JOINT LeftHandThumb2
										{
											OFFSET 4.52789 0.00000 0.00000
											CHANNELS 3 Zrotation Xrotation Yrotation
											JOINT LeftHandThumb3
											{
												OFFSET 2.46977 0.00000 0.00000
												CHANNELS 3 Zrotation Xrotation Yrotation
												End site
												{
													OFFSET 0.00000 0.00000 0.00000
												}
											}
										}
									}
									JOINT LeftHandIndex1
									{
										OFFSET 14.26970 0.00000 2.88139
										CHANNELS 3 Zrotation Xrotation Yrotation
										JOINT LeftHandIndex2
										{
											OFFSET 5.48836 0.00000 0.00000
											CHANNELS 3 Zrotation Xrotation Yrotation
											JOINT LeftHandIndex3
											{
												OFFSET 3.01859 0.00000 0.00000
												CHANNELS 3 Zrotation Xrotation Yrotation
												End site
												{
													OFFSET 0.00000 0.00000 0.00000
												}
											}
										}
									}
									JOINT LeftHandMiddle1
									{
										OFFSET 14.26970 0.00000 -0.09147
										CHANNELS 3 Zrotation Xrotation Yrotation
										JOINT LeftHandMiddle2
										{
											OFFSET 6.17440 0.00000 0.00000
											CHANNELS 3 Zrotation Xrotation Yrotation
											JOINT LeftHandMiddle3
											{
												OFFSET 3.56744 0.00000 0.00000
												CHANNELS 3 Zrotation Xrotation Yrotation
												End site
												{
													OFFSET 0.00000 0.00000 0.00000
												}
											}
										}
									}
									JOINT LeftHandRing1
									{
										OFFSET 12.69180 0.00000 -3.06433
										CHANNELS 3 Zrotation Xrotation Yrotation
										JOINT LeftHandRing2
										{
											OFFSET 5.62556 0.00000 0.00000
											CHANNELS 3 Zrotation Xrotation Yrotation
											JOINT LeftHandRing3
											{
												OFFSET 3.56744 0.00000 0.00000
												CHANNELS 3 Zrotation Xrotation Yrotation
												End site
												{
													OFFSET 0.00000 0.00000 0.00000
												}
											}
										}
									}
									JOINT LeftHandPinky1
									{
										OFFSET 11.11390 0.00000 -6.03719
										CHANNELS 3 Zrotation Xrotation Yrotation
										JOINT LeftHandPinky2
										{
											OFFSET 4.52789 0.00000 0.00000
											CHANNELS 3 Zrotation Xrotation Yrotation
											JOINT LeftHandPinky3
											{
												OFFSET 2.46976 0.00000 0.00000
												CHANNELS 3 Zrotation Xrotation Yrotation
												End site
												{
													OFFSET 0.00000 0.00000 0.00000
												}
											}
										}
									}
								}
							}
						}
					}
					JOINT pCube4
					{
						OFFSET 0.00000 10.91090 1.10792
						CHANNELS 3 Zrotation Xrotation Yrotation
						End site
						{
							OFFSET 0.00000 0.00000 0.00000
						}
					}
				}
			}
		}
	}
	JOINT RightUpLeg
	{
		OFFSET -9.98441 0.00000 0.00000
		CHANNELS 3 Zrotation Xrotation Yrotation
		JOINT RightLeg
		{
			OFFSET 0.00000 -42.11790 0.00000
			CHANNELS 3 Zrotation Xrotation Yrotation
			JOINT RightFoot
			{
				OFFSET 0.00000 -45.00020 -0.00001
				CHANNELS 3 Zrotation Xrotation Yrotation
				JOINT RightForeFoot
				{
					OFFSET 0.00000 -3.74820 0.00000
					CHANNELS 3 Zrotation Xrotation Yrotation
					JOINT RightToeBase
					{
						OFFSET 0.00000 0.06325 14.43120
						CHANNELS 3 Zrotation Xrotation Yrotation
						End site
						{
							OFFSET 0.00000 0.00000 0.00000
						}
					}
				}
			}
		}
	}
	JOINT LeftUpLeg
	{
		OFFSET 9.98441 0.00000 0.00000
		CHANNELS 3 Zrotation Xrotation Yrotation
		JOINT LeftLeg
		{
			OFFSET 0.00000 -42.11800 0.00000
			CHANNELS 3 Zrotation Xrotation Yrotation
			JOINT LeftFoot
			{
				OFFSET 0.00000 -45.00070 0.00000
				CHANNELS 3 Zrotation Xrotation Yrotation
				JOINT LeftForeFoot
				{
					OFFSET 0.00000 -3.74824 0.00000
					CHANNELS 3 Zrotation Xrotation Yrotation
					JOINT LeftToeBase
					{
						OFFSET 0.00000 0.06325 14.43110
						CHANNELS 3 Zrotation Xrotation Yrotation
						End site
						{
							OFFSET 0.00000 0.00000 0.00000
						}
					}
				}
			}
		}
	}
}
MOTION
Frames: 4
Frame Time: 0.050000
0.019782142009668005 0.009184594156820573 -0.034032292000859075 0.025744818057005348 -0.0030509924217133606 -0.013627284331050198 -3.733531635562924 4.23106111849535 -0.567262106426702 -1.0456129816441593 3.915269551219347 0.39749659716383756 -1.3418220873247066 -0.9781089359831874 -0.14610123471627004 0.40632217993126507 0.8208090921141903 -0.8226034911706692 0.6952282455532945 12.127514738877089 -2.266806932887179 -0.3540128161854871 -1.8326632969223382 -8.975199621850205 0.5521650918433321 -17.984803495169047 -0.7481350461972605 -3.649563309373871 1.5046202882931816 -13.155814748088535 69.85189641099203 15.071187307253188 22.67889182302444 6.786557905504514 5.080055386121554 84.73377471338236 13.492823301172955 -0.46250801735689673 -4.471202709306955 4.554465637223617 -0.16643966817637343 -1.586264531986392 -0.046120900720862196 -0.0351912021254338 -56.25438396444087 -0.01594323634935526 0.04536570086171368 -56.252221867002945 -38.79004066924322 -0.020742366385519528 -0.02393139178790587 0.006370287138344378 0.005341306972205056 0.004377473552020579 -0.026446170972892945 0.045657806601308255 0.017162378699504093 -36.723125273885884 -0.028623948668579077 -0.017180175398598667 0.007874236686974274 -0.024191877291590426 -0.018674940647138562 0.009617714478015214 0.023591253665853355 -0.02723334868363425 -19.751514030413666 -0.03617091511277265 -0.049157147930162286 0.008807060026273583 0.01919499502980864 -0.022071597364418667 -0.002728046841814035 0.036324033981083005 -0.042798140315302456 24.057857055704677 0.012368240003239625 0.03831454552558657 28.830134716015703 0.007261357122754698 -0.013146080305879243 28.87282755750519 0.02882062471703985 0.01784413334705779 1.4227910086827715 0.5713004260678572 11.623762272489712 -65.99152348315423 26.009392799583512 -7.391547992804585 6.862675272009192 -13.397944174671293 -52.854077933222946 -8.94250405223939 2.5000306350648707 0.6560313997028813 -0.471614958516951 0.028232367163514245 -8.123004746404481 -0.0465750740513941 0.03003928165006525 44.60713280241239 0.010784008256416134 -0.04759705343425407 44.5582082432467 12.423260630005034 0.025691482682234316 0.025491167993494303 0.026942061868997825 -0.026394081317378918 0.04271030794202943 -0.02180744281332513 -0.022299131763556385 -0.044990708758542185 11.063194652110294 0.0006192477820140994 -0.0030172610142974172 -0.005992627351424922 0.018996280558087036 0.0158118312404456 0.017243007381837424 0.024196075595215392 -0.03962172914126771 4.728084105206695 -0.04356792969783232 -0.029561318697402097 -0.04876494598924761 0.0007460816057419163 -0.04438263850695971 -0.01805728643310921 0.01700328516833852 0.0003438616498030659 -5.635002709600599 0.0037225133061130297 -0.00785571568038606 -6.734997089248476 0.016711468784030407 -0.049012543606390346 -6.685606652110139 -0.005799201072758261 0.004899955151048114 -0.016155146735928393 -0.030532919643426727 0.021352423659700925 8.062553952405388 3.542448754139236 -19.196343240852507 0.023972497145303754 10.378931865416888 -0.005452030374054655 -5.625882351000506 -15.680485394320714 3.190893210521436 -0.014746956167425596 -0.049891911198024934 -0.009727215089061884 -0.014756542020012172 4.681936843919115 -0.04697111974020336 12.5008110687577 -8.273617868046893 6.921802764645273 -0.04409188159001385 46.36078853620212 -0.017145190522447822 -4.2914329259062844 -14.74061584152526 -3.813757917108941 -0.0012457423962147862 -0.045225650461300795 0.04489132049073309 0.03587579706949943 -10.718288682900656 0.03190551696441008 
0.03809863300641753 0.008107726734887698 -0.008542978785566908 -0.026143228801899704 -0.03744230062263501 -0.007132860682430967 -3.541134709474686 4.0124772570398655 -0.6078718002544993 -1.0044289696397313 3.9273915411314895 0.46235592499014655 -1.3395666424591672 -1.1076792749525801 -0.09773084596435153 0.35483062850289804 0.815712886339508 -0.7619390326559418 0.5995494738594138 12.383781040016295 -2.0383294650098964 -0.3311443764617582 -1.7777275150668757 -8.331961011704633 0.4938148113634008 -17.994561756849787 -0.691210124016232 -4.148662787634922 1.634715614193126 -13.34707702841107 70.45872511680707 14.514895066380253 21.960449137446037 4.484354098176474 5.039167323692024 82.5994240033742 13.297992446590317 -0.41641003404771826 -4.104065223777173 4.529268357500025 -0.15006844241471726 -1.5556672521533135 0.008123596682788998 -0.03431720521993056 -56.20898618075169 0.019986515129986913 0.016717011686033647 -56.23955769250285 -38.799654775514234 0.021372566078933793 -0.007083243308045413 0.013271162204886994 -0.022199114818893907 -0.0030329223936211578 0.008040224966867121 -0.04955045649724794 -0.034879661110835604 -36.72391586442123 -0.014275089069296538 0.026253975864541094 -0.049200407348518174 0.022659614331768465 0.02431323798236748 -0.014203767994872328 0.007333374937211106 0.041341344360439805 -19.76888993259144 -0.007530197797237923 -0.001029062583101376 0.02000489167604126 -0.001054135581937688 -0.007705692808571702 -0.03604386192323914 -0.020764667974293542 0.01326074149532746 24.038033825752503 -0.0033947370001186057 0.01155190594531421 28.904177307242318 -0.030856326909278937 0.015543110045503393 28.86005417170899 0.013895239751195552 -0.03619755832240557 2.021938154498755 0.6540007878132434 11.88045812318329 -66.36148467452281 26.08792327407049 -7.577728123402297 6.483384869767718 -13.507479562339759 -52.83279489471599 -9.025958582443932 1.9698699564406346 0.9166026954919702 -0.49230740998589895 0.07700624127110085 -8.09638007970094 0.004922401475275022 -0.04296089238126109 44.52594693617197 -0.03560395258700615 -0.04422650941944641 44.54380371281801 12.4359240121345 0.03509797815000017 -0.01889611409057145 -0.006344435787443084 0.04720586152117373 -0.04748175833613019 0.0009033721413180632 0.008359074456817479 0.03089899508994836 11.075076316174227 0.026139157526726825 0.009718006822043289 -0.005990624087357416 -0.021313160890077832 0.02915839175538367 0.027952553824035914 0.0008436143024734021 0.033745446488615584 4.755707656560693 0.033507700774228905 -0.030357894056295423 -0.011081673034310633 -0.03586490379530668 0.0369459397964353 0.00024130712849466547 -0.028942770708478165 -0.029059283345968377 -5.571972928637666 -0.009297465920375888 0.00910208820951404 -6.681330321710984 -0.013718283276195568 -0.020457996949524063 -6.725830468990741 0.04670365796348294 0.03355207419981213 0.036981501599326824 -0.04322757362462786 0.007584939795985475 8.065317059813815 3.489702580789829 -19.2422141131724 0.006233069762079102 10.38678196776001 -0.03312495977136215 -5.579740056485507 -15.680304235930759 3.2116791358020373 0.016884104290303174 0.02188305419713108 -0.034737798987659683 0.006010576863742911 4.700436030755765 0.024821581739136508 12.465111773079855 -8.195002227784057 6.880233103207774 -0.020211554526149967 46.333574281608556 0.022408507917172134 -4.342552755389764 -14.748060286650404 -3.857024574439975 -0.036041146420022964 0.012615601162216722 0.037439504462703665 -0.022061731595575736 -10.74438727602981 0.024531457865680277 
0.012720026038519445 0.008929355798523261 -0.013536172587367602 -0.036337939059593254 -0.012763867226315687 -0.03749006721990081 -3.2460728665512417 3.75006514310653 -0.7175331982533358 -1.0581550851828199 3.9201300274443502 0.4504904222572718 -1.2869778238718637 -1.1592028208807716 -0.09099861924428318 0.3182727545878825 0.7128241078984403 -0.694663790305659 0.5298344317455281 12.719721715798618 -1.9774178636386985 -0.28878817834429493 -1.5926375197070513 -7.904327475110222 0.5438715732527347 -17.76584870785219 -0.5959953902019326 -4.623454646244791 1.7799047435508928 -13.646583915985264 70.94522033767574 14.739243923233655 21.14633674811136 1.6533056392280565 4.722345057300988 79.17242623968203 13.327178093428872 -0.46717249865561183 -3.784764219803248 4.574640532656757 -0.15742599370130672 -1.5805975340924654 -0.015704502817841224 -0.019899182300210105 -56.23671491006727 -0.005663849961531817 0.0450330404292143 -56.205738595006125 -38.773121620304956 0.040089153044538806 -0.04944763398340307 -0.01469677369024055 -0.01570706972432624 0.024092358392680743 0.023980265429786887 0.017299321737487695 -0.020733361452587112 -36.695536076114315 -0.028472318616564386 0.027860738609389302 0.041423392439291364 -0.008829074655539408 0.014028307268133072 -0.026585367252418245 -0.01283249666500446 -0.00468895846340133 -19.739851284791076 0.010322561356189176 -0.01972739768980365 -0.01491720168223922 -0.03531679459674783 0.012338654577370612 0.04112125152287497 0.011778735098295245 0.02545820663046602 24.074354910571987 0.031533739307286555 0.007383508488252898 28.899200269720566 -0.03629015811645432 0.04396552263688832 28.83660521992771 -0.03265594409540963 0.00033146890624978644 2.7043601921140037 0.7901289655248204 12.133220924601114 -66.33067919489476 26.379406678786115 -8.120559108483969 6.022815809772391 -13.542517215956982 -53.10963736852524 -9.310042416393173 1.3730742458248382 1.350767400211527 -0.4293517697607868 0.07457852832189879 -8.11874787010395 -0.04578303295869437 0.007887362069174095 44.560939046335015 -0.047579652037181376 0.0029589513432501462 44.56364520025304 12.428402201561873 0.015619151404079566 0.03548470031191364 0.03363838527642528 -0.010198993046516997 0.002897040680432231 0.03227646938574549 -0.023283926032598577 0.03697211846004584 11.101197225895522 0.007182766741657248 -0.03391224089787279 -0.024035283325069958 0.014383393838175062 -0.022398047055010622 0.02649347676736784 -0.02294618115908371 0.04323681742662662 4.780000638459025 0.021190116994993374 -0.0033318577384837986 -0.04996341264001608 0.005538734311856619 0.039019567497885974 0.03119058598585289 0.028937517639336628 0.03885176821593171 -5.6246056450754125 0.014945300544719611 0.04890696216809985 -6.703904251519152 -0.02559139937699487 -0.02602988942389383 -6.683666978580355 0.004805956622439987 0.006673274533943059 0.005908934895606898 0.00828406508507538 0.012513280878063398 8.058131226641626 3.4472693382420494 -19.25755539403512 -0.003882592843753063 10.40382770165812 0.039292785490824336 -5.657463578840186 -15.637530855921693 3.154970716991691 0.007305339130246289 -0.007186295332250303 -0.03631196745288435 -0.028121960910227145 4.718043178164092 0.04570957468362449 12.411334041245764 -8.250981569181766 6.83538150003969 -0.03196446306470843 46.42414229310859 0.026316899266085256 -4.314846860406416 -14.710748653905663 -3.8316234983467137 -0.012091474249102015 -0.016144779163263345 -0.01973503547585776 -0.04662217781334348 -10.69536682960944 -0.0397643636396992 
0.013633412942435997 0.02718351858012201 -0.010472606629623415 -0.010556216382475302 -0.010616451107658055 -0.018135686637652186 -2.923830641181397 3.42446035234301 -0.7647758575792067 -1.0112001704782005 3.958319077914799 0.3763192525113829 -1.348822828183757 -1.2842955919830732 0.023708807545931677 0.2501465728596993 0.6476458727422121 -0.6985615186717975 0.5391499060612402 13.021281918931361 -1.8899426815656324 -0.2992953748964379 -1.3567852271639222 -7.462077578311645 0.4863328995281455 -17.507786275416052 -0.6008110161221349 -5.23262199110182 1.9411550901857715 -13.716912080351957 71.27254356991314 13.956490852197964 21.38588153664502 0.16036449718413262 4.089935769521198 78.04668663274428 13.090892610271109 -0.45027813829178154 -3.356600612825033 4.571303013772156 -0.07729747442027694 -1.5435183071393366 0.01654458166740415 0.04143450730279703 -56.26296664228763 -0.011814812656794932 -0.0059522486146771246 -56.2597602474177 -38.77261941465617 0.007351702795153686 -0.04595494118610299 -0.03480549546475229 0.021896195576014178 0.026229387288927954 0.02099452113599895 -0.010382767196037996 0.028998029695088565 -36.6982805815077 -0.007800322030930895 -0.006205330001960254 0.02054990353313913 -0.016610237023464154 -0.0166730753462318 -0.03478692649876455 0.010130518453836149 -0.014360778147598906 -19.734058350276822 0.016141832481474043 -0.040541346877705796 -0.040825760594144916 0.03447792046499218 -0.006104228342614816 0.03820109141670352 -0.02191441228138872 0.03444338879707856 24.03193076077447 -0.03351592383852871 -0.03635381175545666 28.853914150320584 0.004463897342082914 0.04184414771490417 28.87469945634054 0.01074423492129685 -0.02826788719132532 3.5937526248118328 0.9707937148230101 12.285647895631449 -66.47908233376948 25.76128464993431 -9.410728207218556 5.686995388345947 -13.41902673670478 -53.88630641721789 -9.048479356663476 0.9146722302161635 1.5067840850002516 -0.4920647274456179 0.09980632603794964 -8.140950335405295 -0.027118277151032853 0.029945475978725693 44.5822955335885 0.015868674888221416 0.012264608687803935 44.56003875413692 12.410272544483515 -0.020516032140992804 0.04232620689386055 0.03143260768337437 0.028442341750785305 -0.014047000145522072 0.03545302676521737 -0.00640980400865259 0.00855941073222575 11.135121362980552 0.010151726242239681 -0.0212758144228554 0.04845250684127779 -0.030737665208123145 0.001114998683736082 -0.029248239468015663 0.007617507921592037 0.012599889766236268 4.74531928291641 -0.02519956028316883 -0.04223847361774974 -0.022855924163445167 -0.013241536952962665 0.008717803244316459 0.0005702296085232419 0.012377303536326765 0.03444010972888618 -5.581025624407214 0.033753050550340245 0.002362541739539512 -6.727916005152759 0.009857172350043382 0.020934432013837875 -6.759089825970038 -0.0286253581673323 -0.044510091140054726 -0.006010487664977432 -0.04225001422995202 -0.021773484405621497 8.046624074956737 3.508463162481312 -19.219245741709994 0.04837193940548822 10.407638408696602 -0.003614372425200598 -5.6108842844219105 -15.631221853262092 3.2261467934612464 0.010598805720260196 -0.022685930698407304 -0.027351116466964556 -0.0009570643511241831 4.730222885194461 0.028625918232720867 12.491952633279285 -8.219784513321121 6.844188714718516 -0.024405350436446573 46.36341178928722 -0.037730712933987096 -4.331747743875628 -14.78545975887244 -3.863432924767056 0.0294441368101758 0.017729166866951605 0.004743907621309645 0.03880645138505005 -10.713577894654088 0.033106008626270035 
